<svg width="24" height="24" viewBox="0 0 24 24" fill="none" xmlns="http://www.w3.org/2000/svg">
<path d="M22.54 6.42002C22.4212 5.94543 22.1792 5.51059 21.8386 5.15943C21.498 4.80826 21.0707 4.55321 20.6 4.42002C18.88 4.00002 12 4.00002 12 4.00002C12 4.00002 5.11996 4.00002 3.39996 4.46002C2.92921 4.59321 2.50194 4.84826 2.16131 5.19943C1.82068 5.55059 1.57875 5.98543 1.45996 6.46002C1.14518 8.20558 0.991197 9.97633 0.999961 11.75C0.988741 13.5371 1.14273 15.3213 1.45996 17.08C1.59092 17.5399 1.83827 17.9582 2.17811 18.2945C2.51794 18.6308 2.93878 18.8738 3.39996 19C5.11996 19.46 12 19.46 12 19.46C12 19.46 18.88 19.46 20.6 19C21.0707 18.8668 21.498 18.6118 21.8386 18.2606C22.1792 17.9095 22.4212 17.4746 22.54 17C22.8523 15.2676 23.0063 13.5104 23 11.75C23.0112 9.96298 22.8572 8.17872 22.54 6.42002Z" stroke="#F9F9F9" stroke-width="2" stroke-linecap="round" stroke-linejoin="round"/>
<path d="M9.75 15.02L15.5 11.75L9.75 8.48V15.02Z" stroke="#F9F9F9" stroke-width="2" stroke-linecap="round" stroke-linejoin="round"/>
</svg>
