<svg width="24" height="24" viewBox="0 0 24 24" fill="none" xmlns="http://www.w3.org/2000/svg">
<path d="M17 1.99998H7C4.23858 1.99998 2 4.23856 2 6.99998V17C2 19.7614 4.23858 22 7 22H17C19.7614 22 22 19.7614 22 17V6.99998C22 4.23856 19.7614 1.99998 17 1.99998Z" stroke="#F9F9F9" stroke-width="2" stroke-linecap="round" stroke-linejoin="round"/>
<path d="M16 11.37C16.1234 12.2023 15.9812 13.0523 15.5937 13.7991C15.2062 14.5459 14.5931 15.1515 13.8416 15.5297C13.0901 15.908 12.2384 16.0396 11.4077 15.906C10.5771 15.7723 9.80971 15.3801 9.21479 14.7852C8.61987 14.1903 8.22768 13.4229 8.09402 12.5923C7.96035 11.7616 8.09202 10.9099 8.47028 10.1584C8.84854 9.4069 9.45414 8.79378 10.2009 8.40628C10.9477 8.01878 11.7977 7.87663 12.63 8.00004C13.4789 8.12593 14.2648 8.52151 14.8716 9.12835C15.4785 9.73519 15.8741 10.5211 16 11.37Z" stroke="#F9F9F9" stroke-width="2" stroke-linecap="round" stroke-linejoin="round"/>
<path d="M17.5 6.49998H17.51" stroke="#F9F9F9" stroke-width="2" stroke-linecap="round" stroke-linejoin="round"/>
</svg>
